<svg id="svg" xmlns="http://www.w3.org/2000/svg" xmlns:xlink="http://www.w3.org/1999/xlink" width="400" height="400" viewBox="0, 0, 400,400"><g id="svgg"><path id="path0" d="M181.540 58.615 C 143.405 60.530,112.435 67.640,89.844 79.666 C 76.655 86.687,63.772 105.037,52.676 132.608 L 48.828 142.169 27.734 142.183 C -2.834 142.204,-2.968 142.357,3.002 170.402 C 7.010 189.227,8.010 190.518,19.135 191.212 C 25.858 191.631,26.700 192.015,24.645 193.721 C 22.492 195.507,16.504 206.653,14.556 212.500 C 6.275 237.351,11.873 265.683,28.606 283.603 L 31.897 287.128 32.165 308.603 C 32.579 341.699,33.023 342.134,66.460 342.168 C 87.388 342.190,91.023 341.574,95.045 337.326 C 99.054 333.091,99.506 331.549,99.857 320.898 L 100.185 310.937 200.000 310.937 L 299.815 310.937 300.143 320.898 C 300.494 331.549,300.946 333.091,304.955 337.326 C 308.977 341.574,312.612 342.190,333.540 342.168 C 366.912 342.134,367.422 341.640,367.822 308.984 L 368.081 287.891 370.665 285.156 C 392.999 261.527,395.523 222.899,376.483 196.095 L 373.429 191.797 380.486 191.287 C 392.077 190.449,392.971 189.319,396.998 170.402 C 402.968 142.357,402.834 142.204,372.266 142.183 L 351.172 142.169 347.351 132.608 C 336.455 105.341,323.491 86.910,310.073 79.610 C 281.652 64.147,232.205 56.070,181.540 58.615 M230.902 91.030 C 264.419 94.024,292.620 102.721,301.159 112.697 C 306.411 118.832,313.602 132.889,320.219 149.951 L 323.267 157.813 200.000 157.813 L 76.733 157.813 79.781 149.951 C 86.619 132.319,93.588 118.741,98.942 112.620 C 113.739 95.706,173.599 85.912,230.902 91.030 M98.574 212.667 C 121.549 223.221,122.207 255.037,99.684 266.285 C 79.510 276.361,55.781 260.473,57.210 237.848 C 58.492 217.555,80.306 204.275,98.574 212.667 M322.322 211.445 C 343.825 218.645,350.322 244.867,334.519 260.670 C 315.693 279.496,284.015 265.836,284.243 238.991 C 284.406 219.908,304.399 205.444,322.322 211.445 " stroke="none" fill="#000000" fill-rule="evenodd"></path></g></svg>