<svg id="svg" xmlns="http://www.w3.org/2000/svg" xmlns:xlink="http://www.w3.org/1999/xlink" width="400" height="400" viewBox="0, 0, 400,400"><g id="svgg"><path id="path0" d="M173.828 0.550 C 101.679 5.506,51.202 38.700,47.903 83.360 C 45.954 109.745,62.803 132.798,88.963 139.537 L 94.531 140.971 94.531 164.587 C 94.531 211.165,106.208 238.440,135.628 260.582 L 141.406 264.931 141.406 273.783 L 141.406 282.635 127.930 283.003 C 90.297 284.030,61.073 306.439,50.238 342.578 C 48.172 349.469,48.124 350.113,47.836 374.805 L 47.541 400.000 200.000 400.000 L 352.459 400.000 352.164 374.805 C 351.876 350.113,351.828 349.469,349.762 342.578 C 338.935 306.465,309.677 284.030,272.070 283.003 L 258.594 282.635 258.594 273.783 L 258.594 264.931 264.372 260.582 C 280.623 248.352,293.779 229.826,300.372 209.891 C 304.746 196.664,305.469 190.168,305.469 164.098 L 305.469 140.971 311.014 139.543 C 348.353 129.924,363.818 89.090,343.238 54.459 C 320.214 15.715,255.031 -5.028,173.828 0.550 M219.065 24.591 C 260.177 26.138,298.175 39.362,315.494 58.152 C 336.104 80.510,330.841 108.112,304.414 116.268 C 299.435 117.805,116.464 118.684,102.981 117.237 C 64.172 113.069,61.134 72.458,97.771 47.579 C 120.247 32.315,165.739 22.154,203.516 23.958 C 206.094 24.082,213.091 24.366,219.065 24.591 M164.844 59.375 L 164.844 71.094 153.125 71.094 L 141.406 71.094 141.406 82.813 L 141.406 94.531 153.125 94.531 L 164.844 94.531 164.844 82.813 L 164.844 71.094 176.563 71.094 L 188.281 71.094 188.281 82.813 L 188.281 94.531 200.000 94.531 L 211.719 94.531 211.719 82.813 L 211.719 71.094 223.438 71.094 L 235.156 71.094 235.156 82.813 L 235.156 94.531 246.875 94.531 L 258.594 94.531 258.594 82.813 L 258.594 71.094 246.875 71.094 L 235.156 71.094 235.156 59.375 L 235.156 47.656 223.438 47.656 L 211.719 47.656 211.719 59.375 L 211.719 71.094 200.000 71.094 L 188.281 71.094 188.281 59.375 L 188.281 47.656 176.563 47.656 L 164.844 47.656 164.844 59.375 M277.292 146.073 C 272.168 155.687,261.977 162.582,250.738 164.041 C 243.166 165.023,156.834 165.023,149.262 164.041 C 138.151 162.599,127.787 155.601,122.741 146.135 L 120.221 141.406 200.000 141.406 L 279.779 141.406 277.292 146.073 M123.929 180.887 C 126.452 182.406,131.328 184.603,134.766 185.770 L 141.016 187.891 197.656 188.116 C 263.432 188.377,266.349 188.073,278.067 179.729 C 281.380 177.370,281.512 177.568,281.048 184.180 C 279.117 211.693,260.562 237.933,234.259 250.347 C 188.862 271.773,133.973 246.022,121.114 197.266 C 119.553 191.348,118.044 178.125,118.930 178.125 C 119.157 178.125,121.406 179.368,123.929 180.887 M176.563 223.438 L 176.563 235.156 200.000 235.156 L 223.438 235.156 223.438 223.438 L 223.438 211.719 200.000 211.719 L 176.563 211.719 176.563 223.438 M171.318 278.482 C 188.320 283.346,213.645 283.203,229.760 278.152 C 232.513 277.289,234.854 276.578,234.961 276.573 C 235.068 276.567,235.156 284.245,235.156 293.636 L 235.156 310.709 231.055 309.623 C 214.067 305.128,185.933 305.128,168.945 309.623 L 164.844 310.709 164.844 293.552 C 164.844 278.439,164.987 276.450,166.045 276.856 C 166.705 277.110,169.078 277.841,171.318 278.482 M141.393 313.086 L 141.380 319.922 136.120 322.771 C 117.275 332.977,97.821 352.431,87.615 371.276 L 84.766 376.536 77.820 376.549 L 70.873 376.563 71.431 366.310 C 73.474 328.726,96.600 307.035,135.352 306.356 L 141.406 306.250 141.393 313.086 M284.778 308.597 C 310.754 315.240,326.959 336.695,328.591 366.602 L 329.135 376.563 322.184 376.549 L 315.234 376.536 312.385 371.276 C 302.179 352.431,282.725 332.977,263.880 322.771 L 258.620 319.922 258.607 312.969 L 258.594 306.016 268.734 306.552 C 274.392 306.850,281.484 307.754,284.778 308.597 M217.196 331.655 C 220.853 332.256,226.270 333.497,229.234 334.412 L 234.622 336.077 217.313 353.385 L 200.004 370.694 182.798 353.511 L 165.591 336.328 167.756 335.398 C 178.761 330.671,200.980 328.989,217.196 331.655 M156.250 362.109 L 170.687 376.563 141.940 376.563 L 113.193 376.563 114.604 374.113 C 116.814 370.278,130.859 355.887,136.604 351.572 C 139.460 349.426,141.800 347.668,141.805 347.664 C 141.809 347.660,148.309 354.160,156.250 362.109 M274.609 362.055 C 279.766 367.272,284.619 372.671,285.396 374.052 L 286.807 376.563 258.060 376.563 L 229.313 376.563 243.696 362.164 L 258.079 347.765 261.657 350.166 C 263.624 351.487,269.453 356.837,274.609 362.055 " stroke="none" fill="#000000" fill-rule="evenodd"></path></g></svg>