<svg id="svg" xmlns="http://www.w3.org/2000/svg" xmlns:xlink="http://www.w3.org/1999/xlink" width="400" height="400" viewBox="0, 0, 400,400"><g id="svgg"><path id="path0" d="M169.468 0.789 C 133.668 6.849,104.984 34.813,98.036 70.430 C 97.256 74.430,96.589 83.224,96.313 93.164 L 95.862 109.375 87.384 109.375 L 78.906 109.375 78.906 147.656 L 78.906 185.938 90.978 185.938 L 103.050 185.937 106.213 192.687 C 113.853 208.990,127.001 224.204,142.492 234.666 L 145.531 236.719 127.946 236.719 C 85.097 236.719,57.216 251.568,38.761 284.217 C 28.332 302.669,27.344 309.166,27.344 359.302 L 27.344 400.000 200.434 400.000 L 373.524 400.000 373.278 358.008 C 372.976 306.662,371.818 300.233,359.198 279.818 C 341.313 250.888,312.993 236.719,273.052 236.719 L 255.333 236.719 261.846 231.925 C 275.203 222.093,288.159 206.276,294.555 191.993 L 297.266 185.939 309.180 185.938 L 321.094 185.938 321.094 147.656 L 321.094 109.375 312.500 109.375 L 303.906 109.375 303.906 97.235 C 303.906 45.239,277.452 9.763,232.226 1.110 C 225.856 -0.109,176.272 -0.362,169.468 0.789 M233.984 26.470 C 254.677 33.238,270.687 49.345,276.431 69.174 C 279.579 80.039,279.757 79.882,272.289 72.812 C 231.489 34.192,168.395 34.250,128.316 72.944 C 121.282 79.735,121.098 79.853,121.542 77.267 C 125.921 51.785,145.609 30.990,170.703 25.343 C 179.443 23.376,227.122 24.225,233.984 26.470 M211.719 69.098 C 264.250 77.021,294.629 133.176,272.499 181.445 L 270.081 186.719 243.658 186.719 C 218.364 186.719,217.102 186.649,214.098 185.083 C 202.395 178.983,189.839 187.037,190.779 200.041 C 191.603 211.429,203.853 218.176,213.672 212.648 C 216.672 210.959,217.436 210.898,232.778 211.109 L 248.759 211.328 243.715 214.611 C 190.557 249.211,120.582 211.086,120.826 147.656 C 121.013 99.009,163.956 61.893,211.719 69.098 M164.453 302.770 C 183.789 325.726,199.961 344.400,200.391 344.269 C 200.820 344.138,216.900 325.423,236.124 302.680 L 271.076 261.328 279.010 261.104 C 310.846 260.206,337.759 280.665,347.132 312.891 C 348.573 317.846,348.751 321.053,349.030 347.070 L 349.337 375.781 200.450 375.781 L 51.563 375.781 51.563 348.795 C 51.562 318.620,52.041 314.363,56.630 303.657 C 68.027 277.076,91.906 261.099,120.313 261.049 L 129.297 261.033 164.453 302.770 M237.763 262.695 C 236.898 263.662,228.523 273.594,219.151 284.766 C 209.780 295.938,201.692 305.538,201.178 306.100 C 200.388 306.964,165.597 267.507,162.217 261.914 C 161.748 261.138,169.603 260.938,200.481 260.938 L 239.335 260.938 237.763 262.695 M260.156 341.016 L 260.156 353.125 293.750 353.125 L 327.344 353.125 327.344 341.016 L 327.344 328.906 293.750 328.906 L 260.156 328.906 260.156 341.016 " stroke="none" fill="#000000" fill-rule="evenodd"></path></g></svg>