<svg id="svg" xmlns="http://www.w3.org/2000/svg" xmlns:xlink="http://www.w3.org/1999/xlink" width="400" height="400" viewBox="0, 0, 400,400"><g id="svgg"><path id="path0" d="M190.234 83.672 C 180.653 85.040,164.810 91.160,157.531 96.305 C 155.493 97.747,154.945 97.801,151.281 96.921 C 131.140 92.087,102.022 98.707,74.166 114.452 L 66.692 118.677 48.158 113.895 L 29.623 109.112 26.033 110.611 C 19.042 113.528,19.531 107.580,19.531 189.661 C 19.531 278.641,17.531 270.304,38.877 270.310 L 50.800 270.312 96.546 306.445 C 121.706 326.318,143.938 343.732,145.950 345.141 C 159.382 354.551,180.629 350.122,188.780 336.215 L 190.754 332.845 193.535 334.007 C 206.365 339.368,224.878 333.763,230.891 322.697 C 233.101 318.629,232.986 318.669,237.537 320.405 C 250.133 325.210,266.584 319.469,273.621 307.813 C 274.528 306.309,275.323 304.995,275.386 304.893 C 275.449 304.791,277.586 305.442,280.133 306.341 C 297.835 312.584,317.782 300.250,320.134 281.605 L 320.703 277.098 331.250 273.722 L 341.797 270.347 357.422 270.327 C 375.054 270.304,377.135 269.747,379.344 264.461 C 381.092 260.277,381.021 118.978,379.269 115.285 C 375.935 108.259,373.143 108.192,348.536 114.540 L 328.516 119.705 322.270 118.367 C 309.901 115.717,277.277 104.255,252.467 93.842 C 229.736 84.302,209.263 80.956,190.234 83.672 M212.091 103.941 C 223.225 105.217,230.223 107.362,253.052 116.500 C 276.276 125.796,301.606 134.659,313.102 137.511 C 319.068 138.991,320.403 139.596,320.675 140.943 C 320.856 141.842,322.791 166.309,324.973 195.313 C 327.156 224.316,329.022 249.061,329.119 250.302 C 329.293 252.506,329.119 252.612,321.364 255.066 L 313.430 257.576 265.235 209.375 L 217.039 161.175 223.091 153.439 C 232.992 140.783,233.665 133.485,225.256 129.972 C 218.697 127.231,215.486 128.809,208.490 138.211 C 184.148 170.923,157.240 181.827,140.591 165.727 C 134.256 159.601,134.353 154.787,141.025 144.160 C 156.044 120.238,176.780 105.510,198.047 103.660 C 204.166 103.127,205.159 103.147,212.091 103.941 M131.504 120.898 C 111.657 145.192,109.632 165.508,125.514 181.014 C 143.204 198.284,173.229 198.106,196.330 180.592 C 199.254 178.376,201.894 176.562,202.198 176.563 C 203.749 176.563,299.074 273.217,299.552 275.274 C 301.416 283.295,291.963 289.668,284.858 285.180 C 283.518 284.333,266.885 267.859,247.895 248.571 C 226.478 226.816,212.273 212.981,210.482 212.131 C 202.599 208.390,193.946 214.990,195.608 223.474 C 196.206 226.530,198.795 229.314,234.497 265.277 C 256.570 287.513,257.031 288.041,257.031 291.138 C 257.031 297.616,251.133 302.403,245.188 300.750 C 243.230 300.206,235.263 292.694,213.281 270.665 C 197.168 254.516,183.035 240.800,181.875 240.183 C 174.280 236.148,165.209 242.841,166.761 251.334 C 167.232 253.907,170.320 257.333,190.205 277.344 C 202.801 290.020,213.498 301.159,213.976 302.097 C 217.325 308.681,210.551 317.052,203.320 315.263 C 201.926 314.918,192.941 306.550,177.734 291.433 C 152.960 266.806,152.442 266.409,146.511 267.522 C 141.215 268.515,137.550 274.872,139.061 280.444 C 139.628 282.536,143.511 286.888,155.113 298.438 C 163.531 306.816,170.921 314.621,171.537 315.782 C 175.741 323.705,166.719 332.595,159.014 328.123 C 147.508 321.444,65.524 255.076,65.913 252.755 C 66.130 251.455,69.026 224.902,72.347 193.750 C 76.764 152.311,78.690 136.750,79.523 135.769 C 84.648 129.737,119.812 116.669,131.454 116.470 L 135.174 116.406 131.504 120.898 M49.349 135.658 C 56.496 137.579,57.031 137.860,57.031 139.694 C 57.031 141.605,46.583 239.995,45.670 246.680 C 45.254 249.730,45.030 250.000,42.921 250.000 L 40.625 250.000 40.625 191.797 C 40.625 159.785,40.859 133.594,41.146 133.594 C 41.432 133.594,45.124 134.523,49.349 135.658 M359.375 191.834 L 359.375 250.075 354.497 249.842 L 349.619 249.609 345.558 197.266 C 343.325 168.477,341.478 143.323,341.452 141.369 L 341.406 137.816 349.414 135.787 C 353.818 134.670,357.861 133.720,358.398 133.675 C 359.172 133.611,359.375 145.719,359.375 191.834 " stroke="none" fill="#000000" fill-rule="evenodd"></path></g></svg>