<svg id="svg" xmlns="http://www.w3.org/2000/svg" xmlns:xlink="http://www.w3.org/1999/xlink" width="400" height="400" viewBox="0, 0, 400,400"><g id="svgg"><path id="path0" d="M51.563 200.000 L 51.563 400.000 200.000 400.000 L 348.438 400.000 348.438 200.000 L 348.438 0.000 200.000 0.000 L 51.563 0.000 51.563 200.000 M325.000 200.000 L 325.000 376.563 200.000 376.563 L 75.000 376.563 75.000 200.000 L 75.000 23.438 200.000 23.438 L 325.000 23.438 325.000 200.000 M191.598 104.105 C 168.719 126.987,150.000 146.065,150.000 146.501 C 150.000 146.937,153.694 150.975,158.210 155.475 L 166.419 163.657 208.402 121.674 L 250.385 79.691 241.791 71.096 L 233.196 62.502 191.598 104.105 M161.378 63.808 C 152.785 66.225,147.720 77.327,151.457 85.554 C 158.407 100.851,180.546 96.901,181.809 80.138 C 182.633 69.211,172.099 60.791,161.378 63.808 M226.953 132.684 C 210.076 140.704,219.010 166.257,237.359 162.448 C 250.786 159.661,254.346 141.421,242.937 133.871 C 238.621 131.015,231.568 130.491,226.953 132.684 M116.406 214.453 L 116.406 226.563 200.000 226.563 L 283.594 226.563 283.594 214.453 L 283.594 202.344 200.000 202.344 L 116.406 202.344 116.406 214.453 M116.406 272.266 L 116.406 284.375 200.000 284.375 L 283.594 284.375 283.594 272.266 L 283.594 260.156 200.000 260.156 L 116.406 260.156 116.406 272.266 M116.406 330.078 L 116.406 342.188 200.000 342.188 L 283.594 342.188 283.594 330.078 L 283.594 317.969 200.000 317.969 L 116.406 317.969 116.406 330.078 " stroke="none" fill="#000000" fill-rule="evenodd"></path></g></svg>